<?xml version="1.0" standalone="no"?>
<!DOCTYPE svg PUBLIC "-//W3C//DTD SVG 20010904//EN"
 "http://www.w3.org/TR/2001/REC-SVG-20010904/DTD/svg10.dtd">
<svg version="1.0" xmlns="http://www.w3.org/2000/svg"
 width="1530.000000pt" height="1530.000000pt" viewBox="0 0 1530.000000 1530.000000"
 preserveAspectRatio="xMidYMid meet">
<metadata>
Created by potrace 1.14, written by Peter Selinger 2001-2017
</metadata>
<g transform="translate(0.000000,1530.000000) scale(0.100000,-0.100000)"
fill="#000000" stroke="none">
<path d="M6530 14559 c-127 -9 -199 -20 -206 -30 -3 -5 -21 -9 -40 -9 -19 0
-34 -4 -34 -10 0 -5 -15 -10 -34 -10 -19 0 -38 -4 -41 -10 -3 -5 -21 -10 -38
-10 -35 0 -242 -47 -269 -61 -10 -5 -33 -9 -52 -9 -19 0 -37 -4 -40 -9 -3 -5
-23 -11 -43 -14 -35 -5 -141 -37 -188 -57 -11 -5 -37 -11 -57 -14 -84 -13
-108 -19 -114 -27 -3 -5 -13 -9 -23 -9 -10 0 -40 -11 -67 -25 -27 -14 -54 -25
-61 -25 -13 0 -82 -36 -98 -51 -5 -5 -20 -9 -33 -9 -13 0 -43 -11 -68 -25 -25
-14 -51 -25 -58 -25 -13 0 -53 -18 -128 -56 -14 -8 -40 -14 -57 -14 -17 0 -40
-4 -51 -10 -11 -5 -29 -14 -40 -20 -11 -5 -28 -10 -38 -10 -22 0 -79 -27 -87
-41 -4 -5 -26 -9 -51 -9 -24 0 -44 -4 -44 -10 0 -5 -6 -10 -13 -10 -8 0 -22
-9 -32 -20 -10 -11 -25 -20 -34 -20 -14 0 -86 -31 -146 -63 -11 -6 -48 -25
-83 -44 -85 -45 -93 -49 -122 -61 -14 -5 -54 -25 -90 -43 -63 -32 -117 -59
-190 -94 -19 -9 -59 -29 -88 -45 -29 -16 -70 -31 -91 -35 -22 -4 -48 -18 -65
-36 -15 -16 -32 -29 -37 -29 -20 0 -125 -54 -137 -71 -7 -11 -22 -19 -32 -19
-10 0 -21 -4 -25 -10 -3 -5 -34 -23 -68 -40 -34 -18 -73 -43 -88 -56 -14 -13
-34 -24 -45 -24 -10 0 -36 -18 -57 -39 -21 -22 -68 -55 -104 -73 -36 -18 -75
-46 -87 -61 -12 -16 -43 -45 -71 -65 -27 -20 -56 -42 -62 -48 -7 -7 -16 -14
-21 -16 -5 -1 -38 -43 -75 -92 -37 -49 -76 -95 -87 -103 -20 -14 -41 -55 -59
-113 -18 -61 -61 -264 -61 -287 0 -12 -4 -24 -9 -27 -8 -6 -25 -64 -22 -79 1
-5 -4 -27 -10 -50 -7 -23 -18 -73 -25 -112 -16 -90 -40 -184 -65 -261 -11 -34
-19 -65 -18 -70 3 -13 -10 -66 -22 -86 -5 -10 -9 -36 -9 -57 0 -22 -4 -42 -9
-45 -4 -3 -11 -31 -15 -62 -4 -31 -13 -69 -20 -83 -21 -41 -35 -91 -30 -105 3
-7 -3 -39 -12 -72 -8 -32 -19 -72 -24 -89 -4 -16 -15 -50 -24 -75 -8 -25 -16
-64 -16 -87 0 -23 -4 -44 -9 -47 -5 -3 -12 -35 -16 -71 -3 -36 -11 -67 -16
-70 -5 -4 -9 -21 -9 -40 0 -19 -4 -36 -9 -39 -5 -3 -11 -20 -14 -38 -4 -18
-11 -58 -17 -88 -10 -49 -15 -82 -35 -214 -3 -22 -12 -53 -20 -70 -7 -17 -15
-47 -18 -66 -2 -19 -12 -61 -21 -93 -9 -32 -16 -71 -16 -87 0 -16 -5 -32 -10
-35 -6 -4 -10 -18 -9 -33 1 -15 -6 -47 -14 -72 -9 -25 -17 -55 -17 -67 0 -13
-4 -23 -10 -23 -5 0 -10 -19 -10 -42 -1 -24 -7 -70 -15 -103 -19 -83 -53 -214
-65 -251 -6 -17 -10 -37 -10 -46 0 -8 -8 -30 -17 -49 -9 -18 -18 -58 -21 -89
-2 -30 -5 -59 -6 -65 -2 -5 -5 -14 -6 -20 -13 -43 -33 -139 -37 -180 -3 -27
-8 -54 -13 -60 -13 -18 -23 -68 -25 -131 -2 -34 -8 -71 -15 -84 -7 -12 -14
-61 -17 -109 -2 -47 -9 -93 -14 -103 -5 -9 -9 -37 -9 -62 0 -24 -5 -67 -12
-95 -9 -39 -9 -57 1 -77 9 -20 9 -34 -1 -60 -10 -27 -10 -39 0 -54 7 -11 12
-27 12 -35 0 -8 4 -23 9 -33 4 -9 15 -33 23 -52 58 -134 191 -315 239 -324 39
-8 69 -19 69 -26 0 -4 14 -13 30 -20 30 -12 39 -33 20 -45 -5 -3 -10 -21 -10
-39 0 -17 -5 -37 -10 -42 -6 -6 -12 -72 -14 -150 -2 -76 -7 -149 -11 -161 -7
-20 -15 -22 -119 -26 -136 -6 -170 -13 -221 -46 -22 -14 -59 -35 -82 -47 -49
-24 -131 -93 -226 -189 -92 -94 -97 -99 -97 -117 0 -8 -9 -23 -20 -33 -11 -10
-20 -22 -20 -27 0 -5 -11 -26 -24 -47 -14 -21 -26 -56 -28 -78 -2 -21 -7 -44
-11 -50 -4 -6 -7 -67 -6 -136 1 -74 -3 -132 -10 -145 -13 -25 -14 -85 -2 -110
13 -25 26 -60 46 -122 29 -89 54 -136 80 -150 14 -7 25 -17 25 -21 0 -11 152
-169 162 -169 6 0 23 -11 40 -25 16 -14 35 -25 42 -25 20 0 100 -42 117 -61
11 -13 30 -19 61 -19 25 0 59 -7 77 -16 19 -9 42 -13 57 -10 15 4 39 0 59 -10
23 -11 46 -14 67 -10 92 19 116 21 148 12 28 -7 43 -5 77 13 23 11 49 21 56
21 8 0 20 7 27 15 14 17 67 45 85 45 7 0 20 9 30 20 18 20 75 53 81 47 2 -2
-4 -37 -13 -78 -30 -134 -19 -451 18 -534 13 -29 63 -95 96 -125 59 -55 91
-78 116 -84 41 -10 50 -43 37 -152 -5 -51 -7 -106 -4 -123 4 -18 2 -37 -5 -45
-9 -11 -9 -20 -2 -35 6 -11 10 -38 9 -60 -1 -22 3 -46 9 -53 6 -7 13 -31 17
-53 3 -22 8 -49 10 -60 3 -11 10 -40 16 -65 6 -25 14 -57 17 -72 3 -14 14 -36
24 -47 10 -11 19 -32 19 -46 0 -15 11 -41 25 -59 14 -18 25 -40 25 -48 0 -8
18 -49 39 -91 21 -42 37 -78 34 -81 -3 -2 4 -11 16 -18 12 -7 21 -18 21 -23 0
-16 68 -87 120 -126 48 -36 79 -69 80 -83 0 -20 107 -85 140 -86 8 0 56 -20
105 -44 50 -24 109 -50 133 -57 23 -7 42 -15 42 -18 0 -9 75 -31 104 -31 13 0
26 -3 28 -7 9 -21 74 -43 124 -43 30 0 54 -4 54 -10 0 -5 12 -10 28 -10 48 -1
60 -19 66 -100 7 -113 17 -161 32 -167 8 -3 14 -16 14 -30 0 -13 9 -43 20 -65
11 -23 20 -49 20 -59 0 -9 7 -22 14 -29 8 -6 20 -28 27 -48 7 -20 20 -52 31
-70 10 -18 18 -38 18 -46 0 -7 11 -23 25 -36 14 -13 25 -33 25 -44 0 -20 30
-55 129 -151 23 -22 41 -44 41 -50 1 -5 21 -26 45 -45 25 -19 45 -38 45 -42 0
-15 45 -60 74 -75 16 -8 41 -26 55 -40 30 -28 76 -54 84 -47 2 3 25 -9 50 -26
25 -16 51 -30 59 -30 8 0 23 -9 33 -20 29 -32 144 -90 179 -90 14 0 28 -5 31
-10 4 -6 11 -7 17 -4 9 6 31 -2 83 -29 13 -7 20 -6 23 2 5 14 49 15 57 1 10
-16 114 -12 131 4 8 8 14 19 14 24 0 4 11 19 25 32 14 13 25 29 25 36 0 23 18
25 55 4 19 -11 40 -20 45 -20 5 0 41 -20 79 -45 38 -25 78 -45 89 -45 10 0 27
-8 36 -19 11 -12 37 -21 77 -25 68 -8 129 -33 129 -53 0 -7 -9 -13 -20 -13
-11 0 -20 5 -20 10 0 15 -20 12 -38 -7 -12 -12 -13 -18 -4 -21 6 -2 12 -14 12
-26 0 -12 11 -33 25 -46 14 -13 25 -28 25 -33 0 -14 69 -77 85 -77 7 0 45 -28
83 -62 39 -35 91 -79 117 -98 26 -19 53 -41 60 -47 8 -7 18 -13 23 -13 4 0 19
-11 32 -25 13 -14 28 -25 35 -25 6 0 33 -23 60 -51 28 -28 68 -59 90 -70 22
-11 58 -33 80 -49 22 -16 46 -29 53 -30 6 0 12 -4 12 -10 0 -5 8 -10 18 -10 9
0 32 -9 50 -20 17 -11 50 -23 72 -26 22 -4 43 -11 46 -15 3 -5 18 -9 34 -9 16
0 32 -4 35 -10 3 -5 17 -10 30 -10 13 0 27 -5 30 -10 3 -5 24 -10 46 -10 21 0
39 -4 39 -9 0 -17 129 -48 245 -58 33 -2 64 -9 69 -14 6 -5 37 -9 71 -9 34 0
65 -4 71 -9 12 -12 426 -36 529 -31 6 0 59 5 119 10 85 7 122 6 169 -5 51 -12
66 -12 91 -1 17 7 65 14 106 15 72 2 145 8 145 12 0 1 22 3 49 5 27 2 54 8 60
14 5 5 24 10 41 10 16 0 55 9 85 20 30 11 77 23 105 26 27 3 79 19 115 36 90
42 100 46 144 52 21 3 49 14 61 26 12 11 32 20 45 20 22 0 66 12 115 30 11 5
35 14 54 21 70 26 211 198 211 257 0 18 38 72 51 72 5 0 9 -9 9 -20 0 -21 37
-82 54 -89 5 -2 19 -14 30 -26 12 -11 37 -27 56 -35 19 -7 48 -24 63 -37 16
-13 39 -23 52 -23 13 0 27 -5 30 -10 3 -6 22 -10 41 -10 21 0 50 -10 71 -24
25 -18 44 -23 64 -19 15 3 35 1 44 -5 11 -5 33 -6 54 -1 22 5 37 4 39 -1 9
-25 250 -6 272 21 7 9 58 20 115 26 28 2 64 11 82 19 17 8 36 14 43 14 6 0 23
9 37 20 16 12 41 20 64 20 22 0 48 5 59 10 11 6 29 14 40 20 11 5 37 10 59 10
22 0 44 6 51 15 7 8 28 15 46 15 18 0 48 9 66 20 18 11 39 20 46 20 8 0 27 9
43 20 16 12 34 20 41 19 20 -3 63 16 196 86 18 9 38 18 45 19 26 6 53 20 87
45 39 29 59 42 110 67 19 10 37 20 40 23 3 4 18 13 34 21 17 8 46 30 65 47 20
18 41 33 47 33 6 0 31 24 54 54 25 31 63 65 88 77 42 22 202 165 202 181 0 4
20 28 45 52 25 25 45 52 45 60 0 7 7 19 16 27 8 7 24 29 34 48 10 20 32 45 48
55 16 11 38 35 48 55 10 20 21 38 24 41 6 6 40 98 47 125 2 11 9 37 15 57 l11
38 77 0 c82 0 143 18 153 45 4 8 17 15 29 15 29 0 121 33 156 56 28 18 113 84
122 95 3 3 10 8 16 10 28 10 144 123 144 140 0 10 4 19 9 19 12 0 29 17 56 55
11 15 30 40 43 55 12 15 22 32 22 37 0 6 9 18 20 28 11 10 20 24 20 30 0 7 7
18 15 25 8 7 15 21 15 31 0 24 45 123 64 138 7 6 17 28 22 49 4 20 8 39 10 42
1 3 5 15 9 28 4 13 25 31 49 42 22 10 50 31 61 47 24 33 57 69 71 74 8 3 30
34 106 148 10 14 21 33 25 41 3 8 9 17 13 20 18 14 59 122 65 170 13 96 17
331 6 344 -5 6 -13 36 -17 66 -4 29 -12 63 -18 74 -27 51 -151 196 -167 196
-4 0 -22 14 -40 31 -33 31 -78 37 -86 12 -3 -7 26 -43 64 -80 38 -38 75 -84
83 -103 7 -19 22 -47 32 -63 11 -15 21 -46 24 -70 2 -23 8 -64 12 -92 7 -47 1
-137 -13 -215 -6 -33 -20 -69 -51 -134 -8 -16 -14 -37 -14 -46 0 -9 -19 -37
-42 -62 -24 -26 -63 -67 -86 -93 -48 -51 -72 -53 -73 -8 -2 92 -18 184 -40
225 -5 10 -9 25 -9 33 0 8 -4 15 -8 15 -5 0 -14 16 -22 35 -7 19 -28 49 -47
67 -18 17 -33 39 -33 47 0 15 -11 27 -103 121 -57 57 -188 160 -205 160 -5 0
-16 7 -23 16 -20 24 -98 59 -176 78 -37 10 -76 22 -85 27 -27 14 -81 11 -106
-7 -32 -22 -27 -68 8 -71 95 -6 173 -31 283 -90 15 -8 40 -21 54 -28 69 -36
197 -172 259 -277 6 -10 18 -26 27 -36 10 -10 17 -21 17 -25 0 -4 11 -30 24
-59 26 -57 40 -138 24 -138 -11 0 -38 25 -38 35 0 6 -34 52 -59 80 -5 6 -34
32 -65 59 -31 27 -56 54 -56 61 0 12 -41 55 -54 55 -4 0 -19 11 -33 25 -15 13
-41 30 -57 37 -17 6 -33 14 -36 17 -12 14 -51 31 -69 31 -11 0 -23 5 -26 10
-3 6 -17 10 -30 10 -13 0 -27 5 -30 10 -3 6 -18 10 -33 10 -15 0 -36 7 -46 15
-26 19 -76 19 -104 -1 -16 -11 -22 -25 -22 -52 0 -32 5 -39 36 -54 19 -10 45
-18 58 -18 12 0 26 -3 30 -7 11 -11 97 -32 132 -33 17 0 37 -7 44 -15 7 -8 19
-15 27 -15 31 0 106 -50 140 -94 19 -25 44 -48 54 -51 10 -4 19 -12 19 -19 0
-7 10 -21 21 -32 25 -21 69 -115 69 -144 0 -10 4 -21 9 -24 5 -3 11 -18 14
-33 4 -16 11 -50 18 -78 17 -74 23 -195 10 -208 -6 -6 -11 -29 -11 -50 0 -24
-8 -49 -20 -64 -11 -14 -20 -37 -20 -52 -1 -52 -149 -272 -215 -319 -16 -12
-59 -44 -95 -72 -35 -27 -72 -50 -82 -50 -10 0 -18 -4 -18 -10 0 -5 -9 -10
-20 -10 -11 0 -20 -4 -20 -10 0 -5 -10 -10 -23 -10 -13 0 -28 -5 -35 -12 -12
-12 -94 -20 -124 -12 -19 6 -24 39 -8 49 6 3 10 26 10 50 0 24 5 47 10 50 13
8 12 183 -1 250 -14 78 -15 80 -32 83 -27 5 -39 -36 -42 -146 -2 -59 -5 -125
-8 -147 -3 -22 -9 -64 -13 -93 -3 -29 -11 -55 -15 -58 -5 -3 -9 -14 -9 -25 0
-11 -9 -39 -20 -61 -11 -23 -20 -50 -20 -61 0 -10 -5 -17 -12 -14 -18 5 -10
65 14 109 17 29 19 40 10 51 -12 14 -5 53 17 97 23 48 5 236 -27 287 -10 16
-26 20 -30 8 -2 -5 -10 -17 -17 -25 -8 -9 -17 -51 -21 -98 -4 -46 -11 -85 -15
-88 -5 -3 -9 -23 -9 -44 0 -21 -4 -42 -10 -45 -5 -3 -10 -21 -10 -40 0 -34
-44 -172 -61 -189 -5 -6 -9 -23 -9 -38 0 -16 -4 -36 -9 -46 -5 -9 -15 -30 -22
-47 -8 -16 -33 -59 -55 -95 -23 -36 -57 -94 -76 -130 -19 -36 -45 -83 -58
-105 -12 -22 -32 -57 -43 -78 -11 -21 -26 -41 -33 -44 -8 -3 -14 -10 -14 -17
-1 -17 -52 -69 -91 -90 -19 -11 -52 -31 -74 -45 -68 -43 -99 -60 -137 -77 -21
-9 -38 -22 -38 -30 0 -8 -10 -14 -22 -14 -13 0 -49 -16 -81 -35 -32 -19 -62
-35 -66 -35 -4 0 -16 -9 -25 -19 -17 -19 -25 -22 -128 -41 -32 -5 -74 -19 -93
-30 -20 -11 -46 -20 -60 -20 -13 0 -27 -4 -30 -10 -3 -5 -22 -10 -40 -10 -19
0 -50 -9 -69 -19 -26 -15 -63 -21 -167 -26 -74 -4 -139 -11 -146 -17 -17 -14
-436 -13 -462 2 -11 5 -24 9 -28 8 -18 -4 -123 14 -128 23 -4 5 -26 9 -51 9
-24 0 -44 5 -44 10 0 6 -13 10 -29 10 -44 0 -104 28 -97 46 3 8 -3 20 -14 26
-11 7 -20 18 -20 24 0 7 -10 14 -22 17 -28 8 -147 -4 -154 -14 -3 -5 -32 -9
-65 -9 -32 0 -67 -4 -77 -9 -41 -21 -70 -30 -117 -37 -27 -4 -61 -9 -75 -11
-14 -2 -47 -7 -75 -9 -27 -3 -54 -10 -60 -15 -5 -5 -30 -9 -55 -9 -25 0 -50
-4 -55 -9 -16 -15 -200 -38 -450 -56 -49 -3 -103 -10 -120 -14 -63 -17 -667 0
-691 20 -6 4 -43 7 -82 4 -39 -2 -74 0 -77 6 -4 5 -25 9 -49 9 -23 0 -47 5
-53 11 -6 6 -33 13 -60 14 -66 4 -99 13 -159 41 -28 13 -68 24 -88 24 -20 0
-50 7 -66 15 -16 8 -35 12 -43 9 -9 -3 -33 6 -54 20 -21 14 -61 29 -88 32 -36
5 -61 17 -89 41 -22 18 -50 33 -62 33 -13 0 -26 5 -29 10 -3 6 -13 10 -21 10
-16 0 -116 47 -214 101 -8 5 -31 16 -50 24 -19 9 -37 19 -40 23 -3 5 -48 38
-100 74 -93 65 -301 265 -326 313 -29 56 -50 91 -66 109 -10 11 -18 26 -18 33
0 7 -4 21 -9 31 -28 53 -36 115 -36 274 0 120 3 171 13 180 6 6 12 21 12 32 0
12 9 32 20 46 11 14 20 28 20 33 0 4 11 25 25 47 14 22 25 46 25 55 0 8 5 15
10 15 6 0 10 14 10 30 0 21 -5 30 -16 30 -22 0 -54 -19 -54 -32 0 -6 -16 -26
-35 -45 -19 -19 -35 -42 -35 -51 0 -9 -12 -30 -28 -47 -39 -44 -82 -146 -82
-198 0 -15 -4 -27 -10 -27 -6 0 -10 -26 -10 -59 0 -33 -4 -62 -8 -65 -11 -6
-10 -102 1 -112 4 -4 7 -38 7 -76 0 -48 6 -81 20 -110 11 -23 23 -57 26 -77 4
-19 15 -44 25 -55 26 -27 25 -66 -1 -66 -27 0 -70 39 -70 64 0 11 -8 29 -19
40 -10 12 -31 46 -46 76 -15 30 -31 63 -36 72 -5 10 -9 38 -9 62 0 25 -4 48
-10 51 -5 3 -10 37 -10 75 0 38 4 72 10 75 6 3 10 15 10 26 0 10 4 27 9 37 18
34 41 90 41 100 0 18 -18 24 -39 12 -17 -9 -49 -65 -71 -125 -4 -11 -12 -31
-17 -45 -19 -46 -31 -110 -22 -116 5 -3 9 -32 9 -64 0 -32 5 -62 10 -65 6 -3
10 -19 10 -35 0 -16 4 -31 9 -34 5 -3 12 -18 15 -32 4 -15 20 -46 37 -70 40
-58 39 -84 -3 -84 -49 0 -130 67 -161 132 -66 142 -64 133 -62 272 1 72 5 147
10 166 9 37 72 140 86 140 5 0 9 6 9 13 0 8 9 22 20 32 11 10 20 26 20 35 0 9
5 21 11 27 16 16 2 33 -26 33 -43 0 -123 -77 -151 -147 -10 -23 -22 -43 -26
-43 -4 0 -8 -9 -8 -20 0 -11 -4 -20 -10 -20 -5 0 -10 -15 -10 -32 0 -18 -7
-51 -15 -73 -20 -57 -10 -255 16 -309 40 -84 18 -106 -73 -76 -34 12 -69 26
-75 32 -7 6 -13 8 -13 5 0 -3 -34 12 -76 34 -42 21 -81 39 -86 39 -20 0 -84
34 -110 58 -15 13 -35 30 -46 36 -41 24 -101 71 -102 80 0 5 -10 19 -23 32
-68 70 -87 92 -87 101 0 5 -9 18 -21 29 -11 10 -29 37 -40 61 -10 23 -23 44
-29 48 -5 3 -18 26 -29 50 -11 25 -24 45 -29 45 -5 0 -14 19 -21 43 -7 23 -17
50 -22 59 -5 10 -9 42 -9 71 0 29 -4 57 -9 63 -13 13 -21 402 -9 455 5 24 12
59 15 77 3 18 9 35 14 38 5 3 9 16 9 30 0 13 4 32 9 42 5 9 19 38 32 65 12 26
28 52 36 58 7 6 13 18 13 25 0 8 3 14 8 14 8 0 32 48 32 64 0 17 44 76 58 76
6 0 12 6 12 13 0 16 41 57 56 57 11 0 74 73 74 85 0 14 45 65 57 65 9 0 13 14
13 43 0 52 -19 97 -42 97 -22 0 -208 -158 -208 -177 0 -4 -13 -21 -29 -38 -30
-31 -57 -73 -87 -135 -10 -19 -25 -44 -34 -55 -19 -23 -90 -202 -90 -227 0 -9
-4 -20 -10 -23 -5 -3 -10 -17 -10 -30 0 -13 -4 -27 -10 -30 -6 -3 -10 -19 -10
-35 0 -16 -5 -32 -11 -36 -6 -3 -9 -20 -7 -36 5 -29 -7 -78 -25 -105 -10 -16
-253 -18 -262 -3 -3 6 -28 10 -55 10 -50 0 -142 20 -176 38 -27 15 -85 38
-113 47 -14 4 -60 32 -103 61 -43 30 -80 54 -82 54 -6 0 -98 95 -131 136 -27
33 -42 62 -61 116 -4 10 -10 18 -15 18 -5 0 -9 17 -9 38 0 21 -6 44 -12 51
-15 14 -13 260 3 275 5 6 9 19 9 31 0 12 4 25 8 31 5 5 14 29 22 54 17 58 56
142 78 166 9 11 29 44 44 74 15 30 35 60 46 67 20 12 28 63 10 63 -14 0 -111
-71 -122 -88 -4 -8 -17 -23 -27 -33 -11 -11 -19 -23 -19 -29 0 -5 -4 -10 -10
-10 -5 0 -10 -6 -10 -14 0 -7 -7 -19 -15 -26 -9 -7 -25 -33 -35 -56 -11 -24
-24 -46 -30 -49 -5 -3 -10 -19 -10 -35 0 -16 -4 -32 -10 -35 -5 -3 -10 -16
-10 -29 0 -12 -4 -26 -9 -32 -12 -13 -21 -78 -29 -213 -6 -103 -8 -113 -22
-96 -41 48 -120 203 -120 235 0 10 -4 21 -9 24 -9 6 -11 17 -33 146 -20 122
-11 401 13 416 5 3 9 16 9 29 0 13 5 27 10 30 6 3 10 19 10 35 0 16 4 31 9 34
5 3 12 18 16 33 3 15 15 39 26 54 10 15 19 32 19 38 0 24 46 109 87 159 24 29
43 57 43 62 0 5 20 30 45 56 25 25 45 50 45 54 0 4 36 43 80 88 80 80 98 116
64 129 -9 3 -26 -5 -42 -19 -29 -27 -87 -58 -108 -58 -21 0 -219 -216 -245
-267 -13 -27 -27 -50 -30 -53 -4 -3 -17 -27 -29 -55 -13 -27 -29 -57 -36 -65
-6 -8 -19 -36 -27 -61 -46 -136 -66 -153 -108 -97 -13 17 -33 43 -45 57 -11
14 -32 52 -47 84 -25 52 -27 70 -28 175 -1 101 2 123 21 160 12 24 19 46 16
49 -2 3 4 20 15 39 10 19 19 43 19 54 0 11 5 20 11 20 6 0 9 17 7 43 -3 38 -6
42 -32 45 -21 3 -37 -5 -62 -29 -19 -18 -34 -38 -34 -44 0 -10 -35 -90 -61
-137 -5 -10 -9 -36 -9 -57 0 -44 -18 -93 -33 -88 -16 5 -39 88 -32 116 3 14 7
37 9 51 4 33 12 53 47 124 16 32 29 65 29 72 0 8 5 14 10 14 6 0 10 5 10 11 0
12 91 132 145 193 44 49 45 72 4 78 -26 4 -39 -3 -84 -44 -29 -26 -58 -48 -64
-48 -6 0 -11 -4 -11 -10 0 -5 -15 -27 -32 -47 -39 -45 -49 -61 -83 -133 -15
-30 -31 -63 -36 -72 -5 -10 -9 -25 -9 -33 0 -8 -7 -15 -16 -15 -19 0 -16 33
10 120 4 14 11 34 16 45 4 11 14 35 22 52 7 18 16 33 20 33 5 0 8 7 8 16 0 18
31 77 43 82 4 2 7 9 7 16 0 7 14 27 30 44 17 18 30 36 30 40 0 9 68 78 108
109 25 19 22 57 -4 51 -21 -5 -188 -158 -215 -198 -13 -19 -27 -37 -30 -40
-13 -11 -99 -183 -99 -199 0 -10 -9 -37 -21 -60 -11 -24 -18 -49 -15 -56 3 -8
-1 -19 -9 -25 -11 -9 -23 -2 -60 37 -25 26 -48 59 -52 73 -6 22 -55 120 -73
145 -4 6 -10 38 -13 72 -4 35 -12 71 -18 81 -9 14 -9 45 0 126 6 60 9 112 6
116 -3 5 -1 11 5 15 5 3 10 31 10 62 0 53 8 89 34 156 6 15 14 27 18 27 5 0 8
16 8 35 0 19 5 35 10 35 6 0 10 6 10 14 0 7 7 27 15 42 8 16 15 39 15 52 0 12
9 31 20 42 11 11 20 22 20 26 0 10 88 140 104 153 9 7 16 19 16 25 0 6 13 20
28 30 16 10 38 33 50 50 38 55 116 130 177 171 59 40 76 67 43 73 -16 3 -110
-58 -126 -81 -4 -7 -37 -37 -73 -67 -69 -58 -259 -277 -280 -323 -7 -15 -16
-27 -21 -27 -4 0 -8 -9 -8 -19 0 -11 -4 -21 -8 -23 -10 -4 -82 -150 -82 -166
0 -6 -9 -27 -20 -46 -23 -42 -50 -141 -50 -184 0 -17 -4 -34 -10 -37 -5 -3
-10 -37 -10 -75 0 -38 -4 -71 -9 -74 -5 -3 -7 -23 -5 -43 14 -118 15 -153 7
-153 -24 0 -33 57 -33 202 0 144 12 252 31 290 5 10 9 28 9 40 0 13 7 36 15
52 8 15 15 34 15 42 0 7 9 29 20 49 11 20 20 42 20 50 0 8 9 30 19 49 11 19
25 53 31 75 6 22 16 46 23 53 7 7 29 38 49 68 19 30 45 64 57 74 11 11 21 24
21 31 0 6 11 22 25 35 14 13 25 28 25 35 0 6 9 17 20 25 11 8 20 18 20 23 0 5
42 50 94 101 85 84 117 128 102 143 -11 11 -54 -8 -87 -39 -19 -18 -52 -46
-74 -63 -52 -39 -235 -227 -235 -242 0 -2 -16 -23 -35 -46 -19 -22 -35 -47
-35 -54 0 -7 -3 -13 -8 -13 -4 0 -13 -13 -20 -29 -19 -43 -51 -81 -69 -81 -8
0 -26 9 -40 20 -14 11 -34 20 -44 20 -10 0 -21 4 -24 10 -3 5 -24 10 -46 10
-43 0 -46 7 -30 70 5 19 11 102 14 183 3 91 9 153 16 160 13 13 107 15 193 5
47 -5 62 -3 80 12 13 9 39 20 58 23 53 8 94 19 100 26 12 14 51 31 72 31 26 0
156 84 165 106 3 8 11 14 18 14 6 0 34 20 61 45 27 24 54 45 60 45 12 0 49
-27 92 -67 14 -13 33 -23 43 -23 10 0 44 -12 76 -26 50 -22 68 -25 135 -22 42
3 84 10 92 17 8 7 42 16 76 21 42 6 67 15 79 29 13 15 30 21 59 21 22 0 44 4
47 10 3 5 21 17 39 25 49 23 169 144 189 190 10 22 27 57 38 78 10 22 19 49
19 62 0 13 5 27 10 30 6 3 10 39 10 80 0 41 -4 77 -10 80 -5 3 -10 17 -10 30
0 32 -38 45 -57 19 -7 -10 -13 -31 -13 -47 0 -27 -2 -28 -32 -22 -18 4 -49 19
-68 34 -19 16 -51 36 -70 46 -36 18 -140 113 -140 127 0 5 -14 24 -31 43 -35
38 -69 100 -86 160 -43 141 -46 163 -46 300 0 99 4 153 15 185 8 25 21 72 28
105 13 66 25 96 52 137 26 38 98 181 98 193 0 6 25 38 55 71 30 32 60 66 68
74 7 8 29 29 50 45 27 21 41 42 47 70 5 22 7 41 5 43 -13 13 -62 -16 -122 -70
-82 -75 -122 -124 -158 -195 -14 -29 -29 -53 -34 -53 -4 0 -13 -16 -21 -35 -8
-19 -17 -35 -22 -35 -4 0 -8 -7 -8 -15 0 -17 -29 -65 -39 -65 -23 0 -45 190
-24 203 9 6 10 47 1 63 -2 5 -6 47 -8 94 -1 47 -4 110 -5 140 -1 30 -5 62 -8
70 -3 8 -8 89 -11 180 -3 91 -10 210 -15 265 -23 230 -26 302 -26 547 0 192 3
260 13 270 7 7 12 37 12 69 0 32 5 61 10 64 6 3 10 17 10 31 0 13 5 24 10 24
6 0 10 11 10 25 0 23 5 37 31 85 5 8 16 31 26 50 9 19 29 53 43 75 15 22 35
58 46 80 10 22 20 42 24 45 11 10 57 75 60 85 1 6 20 29 40 53 21 23 45 57 53
75 9 17 32 48 52 67 20 19 50 54 66 78 17 23 35 42 40 42 6 0 27 13 47 30 35
28 115 91 137 108 6 4 29 16 53 26 24 11 52 32 63 48 11 15 29 28 39 28 10 0
21 4 24 9 3 4 20 11 37 15 18 3 38 15 46 26 8 11 23 20 34 20 10 0 19 3 19 8
0 9 49 32 68 32 13 0 92 34 144 61 10 5 27 9 38 9 11 0 20 3 20 8 0 4 27 16
61 26 33 11 62 23 65 28 3 4 23 8 45 8 21 0 47 4 57 9 32 16 67 29 92 35 77
16 126 29 135 37 5 5 18 9 30 9 22 0 91 22 101 33 4 4 21 7 39 7 17 0 35 4 41
9 5 5 27 11 49 15 126 17 204 32 211 39 4 4 22 7 41 7 18 0 33 4 33 9 0 5 26
11 58 14 31 2 75 10 97 17 22 6 76 16 120 21 44 5 88 14 97 19 10 6 39 10 66
10 26 0 52 4 58 9 5 5 45 12 89 14 173 11 260 20 271 28 6 5 65 11 130 14 65
2 148 9 184 14 36 6 88 11 116 11 27 0 55 5 61 11 8 8 17 8 29 1 11 -6 25 -7
35 -1 9 4 45 9 80 10 35 1 71 5 80 10 9 4 56 10 105 11 49 2 94 7 101 11 11 7
332 3 635 -8 109 -4 158 -3 163 5 4 7 11 8 18 1 7 -5 55 -12 107 -15 215 -15
245 -18 254 -27 6 -5 57 -9 115 -9 77 -1 111 -5 125 -15 14 -11 47 -15 115
-15 52 0 108 -4 125 -10 46 -14 314 -58 386 -64 19 -1 46 -6 60 -11 14 -4 36
-9 50 -11 14 -1 48 -8 75 -14 28 -6 74 -13 103 -17 28 -3 52 -9 52 -14 0 -5
15 -9 33 -9 17 0 46 -7 62 -16 28 -15 123 -38 205 -51 19 -3 47 -14 62 -24 14
-11 34 -19 44 -19 10 0 38 -10 62 -21 24 -12 65 -24 90 -27 27 -3 64 -16 87
-32 22 -15 65 -35 95 -45 51 -18 68 -26 125 -63 11 -7 34 -19 51 -27 17 -7 47
-34 68 -59 20 -25 42 -51 49 -58 19 -19 87 -162 87 -181 0 -10 14 -47 30 -84
17 -36 30 -73 30 -82 0 -10 5 -22 12 -29 6 -6 15 -49 20 -94 8 -74 13 -154 32
-473 3 -49 11 -107 18 -128 8 -27 8 -41 0 -49 -8 -8 -7 -16 1 -29 9 -15 9 -24
-1 -39 -7 -12 -10 -26 -6 -32 4 -6 10 -61 15 -122 4 -61 12 -138 18 -171 20
-107 22 -119 27 -195 6 -75 -18 -283 -37 -321 -23 -48 -30 -60 -41 -80 -7 -12
-23 -33 -35 -47 -13 -14 -23 -33 -23 -42 0 -22 -105 -120 -128 -120 -39 0 -55
-97 -25 -153 9 -18 20 -57 24 -87 4 -30 12 -73 19 -95 14 -51 29 -164 36 -280
5 -83 4 -93 -18 -124 -22 -34 -116 -91 -148 -91 -9 0 -20 -4 -26 -10 -5 -5
-51 -10 -103 -11 -80 -2 -97 -6 -119 -24 -31 -27 -25 -47 19 -69 36 -18 154
-22 164 -6 3 6 19 10 35 10 16 0 45 9 65 20 20 11 41 20 49 20 7 0 31 16 54
36 29 24 43 31 46 22 7 -21 2 -82 -9 -99 -17 -28 -93 -59 -166 -69 -78 -9
-101 -22 -81 -42 9 -9 55 -14 134 -17 l121 -3 -6 -72 c-3 -39 -8 -79 -12 -88
-9 -24 -50 -23 -83 1 -58 40 -221 63 -472 64 -207 1 -326 -7 -387 -28 -24 -8
-52 -15 -63 -15 -10 0 -22 -4 -25 -10 -3 -5 -13 -10 -21 -10 -14 0 -96 -34
-124 -51 -8 -5 -34 -19 -57 -30 -43 -20 -62 -52 -49 -84 8 -21 17 -19 60 10
20 14 45 25 56 25 10 0 22 5 25 10 3 6 15 10 26 10 10 0 27 4 37 9 100 50 597
111 609 74 4 -10 -14 -13 -67 -13 -108 0 -187 -50 -129 -81 13 -6 39 -8 68 -4
25 4 129 8 230 10 173 4 221 -1 221 -24 0 -8 -30 -12 -207 -28 -69 -6 -76 -15
-42 -52 19 -20 28 -22 68 -16 89 14 285 16 324 4 37 -12 48 -31 25 -45 -6 -4
-61 -9 -122 -11 -104 -3 -166 -15 -166 -33 0 -28 37 -34 244 -35 117 -1 218
-5 225 -9 9 -6 9 -11 0 -22 -7 -9 -32 -14 -70 -14 -32 0 -61 -4 -64 -10 -3 -5
-41 -11 -83 -11 -106 -2 -137 -9 -137 -34 0 -18 6 -20 55 -19 366 9 400 8 400
-11 0 -16 -18 -22 -95 -29 -164 -17 -278 -40 -295 -62 -19 -22 2 -25 197 -28
203 -4 255 -11 251 -34 -2 -8 -16 -16 -33 -17 -16 -2 -66 -6 -109 -10 -44 -3
-88 -11 -98 -16 -10 -6 -42 -11 -71 -11 -34 -1 -62 -8 -79 -20 -55 -38 -22
-74 53 -57 61 14 356 16 369 3 22 -22 -18 -33 -135 -38 -66 -3 -156 -9 -200
-13 -71 -7 -81 -11 -92 -33 -18 -36 -2 -48 65 -45 31 2 65 -1 74 -6 10 -6 19
-5 23 1 8 13 192 13 200 0 5 -8 11 -7 20 0 10 8 19 8 35 0 45 -24 13 -31 -215
-49 -145 -12 -200 -29 -200 -63 0 -25 -23 -24 233 -14 51 2 75 -1 83 -10 20
-24 -36 -34 -205 -37 l-161 -2 0 -25 c0 -30 29 -39 98 -32 31 3 47 1 47 -6 0
-7 -10 -14 -22 -16 -13 -3 -36 -8 -53 -11 -16 -3 -61 -8 -100 -10 -38 -2 -85
-7 -104 -10 -59 -11 -165 -14 -176 -6 -5 5 -44 11 -85 14 -131 9 -192 17 -224
31 -46 19 -100 36 -118 36 -8 0 -23 9 -33 20 -10 11 -26 20 -37 20 -10 0 -18
3 -18 8 0 4 -29 28 -64 54 -35 27 -70 61 -77 77 -13 30 -41 37 -66 18 -35 -26
6 -121 78 -179 19 -15 56 -45 84 -68 27 -22 55 -40 61 -40 6 0 28 -7 48 -15
20 -8 38 -15 41 -15 3 1 30 -13 61 -30 30 -16 64 -30 74 -30 10 0 21 -4 24 -9
16 -26 498 -31 546 -6 16 8 52 15 80 15 27 0 58 4 68 9 9 5 37 17 62 26 25 9
53 21 62 26 10 5 28 9 41 9 13 0 32 9 42 20 10 11 22 20 27 20 5 0 31 18 59
40 28 22 55 40 59 40 5 0 32 21 61 47 28 27 63 57 78 67 14 11 55 55 91 99 36
44 78 96 94 114 16 19 41 58 56 86 34 66 70 137 81 159 5 9 13 43 18 75 5 32
17 77 26 101 15 37 16 48 4 87 -14 48 -25 57 -58 48 -18 -4 -21 -13 -21 -53 0
-26 -6 -60 -14 -76 -7 -16 -28 -65 -47 -109 -18 -44 -41 -92 -51 -107 -10 -14
-18 -30 -18 -36 0 -5 -7 -15 -15 -22 -8 -7 -15 -22 -15 -34 0 -28 -58 -98 -78
-94 -10 2 -16 18 -18 53 -5 70 -14 126 -24 150 -5 11 -14 38 -21 60 -20 67
-62 148 -78 152 -9 3 -30 24 -46 47 -32 43 -186 158 -266 197 l-46 23 1 88 c1
119 9 125 91 73 65 -41 138 -75 163 -75 13 0 33 -5 44 -11 26 -14 238 -13 252
1 6 6 20 10 33 10 28 0 165 67 176 86 4 8 21 21 37 29 46 24 140 116 140 136
0 12 7 19 18 19 27 0 44 24 85 120 33 78 39 114 35 195 -4 76 -7 85 -39 123
-36 44 -59 52 -79 27 -11 -13 -10 -22 3 -51 10 -19 17 -51 17 -72 0 -72 -41
-187 -94 -265 -14 -21 -26 -40 -26 -42 0 -3 -30 -35 -66 -71 -60 -61 -64 -67
-47 -79 14 -10 15 -17 7 -25 -17 -17 -50 -8 -46 13 4 23 -24 22 -79 -5 -112
-54 -281 -69 -369 -31 -19 8 -44 19 -55 23 -87 35 -136 72 -164 127 -13 25
-15 173 -3 173 4 0 24 -16 42 -35 19 -20 53 -47 76 -60 43 -25 153 -57 194
-57 77 2 186 14 194 22 6 6 19 10 29 10 10 0 31 6 45 14 15 7 40 20 57 27 36
17 146 124 161 159 7 14 19 43 29 65 16 39 22 53 44 108 16 41 13 131 -6 172
-14 29 -15 45 -7 93 15 93 5 125 -61 192 -36 36 -71 62 -89 66 -17 3 -36 11
-43 16 -7 6 -22 4 -43 -7 -24 -13 -46 -15 -99 -9 -60 6 -73 3 -119 -20 -28
-14 -58 -26 -66 -26 -7 0 -16 -6 -19 -14 -3 -8 -17 -20 -30 -28 -93 -51 -154
-110 -164 -160 -3 -15 -10 -31 -14 -34 -15 -9 -10 -54 5 -54 8 0 41 27 74 60
55 54 63 59 92 54 27 -6 88 14 110 36 5 5 47 28 100 54 40 21 125 46 153 46
64 0 114 -63 101 -127 l-6 -33 -70 0 c-57 0 -83 -6 -137 -30 -95 -44 -96 -45
-99 -69 -4 -27 24 -39 52 -21 83 53 156 74 171 49 19 -30 -119 -111 -230 -135
-33 -7 -100 -13 -150 -13 -124 -1 -208 28 -278 95 -59 56 -77 89 -77 142 0 21
-4 42 -10 48 -5 5 -10 26 -12 47 -2 33 4 43 55 95 31 32 57 63 57 70 0 7 5 12
10 12 6 0 10 6 10 13 0 8 9 22 20 32 10 9 19 20 18 24 -2 10 14 45 29 62 26
31 73 130 73 154 0 14 8 39 19 58 19 35 22 46 44 197 9 65 11 102 4 117 -7 16
-6 27 2 36 11 14 8 293 -4 305 -3 3 -5 30 -5 61 0 31 -5 76 -11 101 -7 33 -7
50 2 67 9 18 9 26 -1 38 -8 10 -12 47 -12 115 1 54 -3 102 -8 105 -6 3 -10 42
-10 86 0 46 -4 79 -10 79 -5 0 -10 16 -10 36 0 20 -6 48 -14 62 -22 44 -34 94
-34 145 0 36 -6 55 -21 71 -12 12 -21 29 -21 38 0 9 -24 65 -54 125 -29 59
-61 125 -69 145 -9 20 -29 51 -44 69 -86 98 -117 129 -128 129 -7 0 -26 15
-43 34 -32 37 -129 106 -149 106 -7 0 -20 12 -30 28 -22 34 -33 42 -59 42 -42
0 -69 20 -197 145 -34 34 -87 79 -117 102 -30 22 -70 54 -89 72 -18 17 -36 31
-39 31 -3 0 -33 26 -67 58 -84 78 -162 138 -210 161 -22 10 -51 31 -64 45 -14
14 -30 26 -36 26 -7 0 -20 9 -30 20 -10 11 -22 20 -28 20 -5 0 -31 16 -57 35
-26 19 -53 35 -59 35 -6 0 -11 4 -11 9 0 5 -10 12 -22 16 -13 4 -25 8 -28 10
-3 1 -14 5 -25 10 -11 5 -32 17 -47 27 -14 10 -31 18 -38 18 -6 0 -26 10 -43
23 -18 12 -56 34 -84 47 -29 14 -53 28 -53 33 0 4 -9 7 -20 7 -11 0 -20 4 -20
8 0 5 -19 17 -42 27 -78 32 -93 39 -120 57 -14 10 -37 18 -51 18 -14 0 -45 11
-68 25 -24 14 -55 25 -69 25 -14 0 -36 9 -50 20 -14 11 -32 20 -41 20 -9 0
-30 7 -45 15 -16 8 -41 15 -55 15 -14 0 -34 9 -44 20 -10 11 -29 20 -42 20
-13 0 -31 4 -41 9 -9 5 -28 13 -42 19 -14 6 -47 20 -75 33 -45 21 -78 30 -173
46 -18 3 -35 9 -38 14 -3 5 -19 9 -35 9 -33 0 -128 28 -144 41 -5 5 -19 9 -32
9 -13 0 -31 4 -41 10 -15 9 -61 20 -207 50 -99 20 -162 32 -191 34 -17 2 -37
7 -45 12 -7 4 -26 7 -42 6 -16 -2 -34 2 -41 7 -6 5 -38 12 -71 15 -130 12
-201 23 -227 35 -19 10 -35 11 -55 4 -15 -5 -44 -6 -63 -2 -40 8 -199 7 -340
-2z m1330 -809 c0 -5 -5 -10 -11 -10 -5 0 -7 5 -4 10 3 6 8 10 11 10 2 0 4 -4
4 -10z m3888 -3904 c2 -16 -2 -41 -9 -55 -6 -14 -19 -41 -28 -60 -32 -68 -252
-239 -309 -240 -13 -1 -31 -5 -41 -11 -12 -6 -52 -6 -112 1 -87 9 -115 16
-161 40 -10 5 -25 9 -34 9 -9 0 -31 7 -49 16 -60 28 -133 214 -91 230 10 4 54
-5 99 -20 113 -36 182 -46 311 -46 l111 0 105 53 c58 29 121 67 140 85 41 38
64 38 68 -2z m-8732 -761 c36 -36 72 -65 80 -65 8 0 14 -4 14 -10 0 -5 10 -10
23 -10 33 0 47 -18 47 -61 0 -21 5 -41 10 -44 6 -3 10 -21 10 -40 0 -18 4 -35
9 -37 5 -1 12 -23 16 -47 l7 -43 -43 5 c-50 6 -97 16 -119 25 -8 3 -19 7 -25
7 -34 5 -72 20 -88 33 -9 8 -27 20 -39 26 -31 16 -70 76 -62 95 4 9 9 31 12
49 2 18 8 35 13 38 5 3 9 16 9 29 0 13 5 27 10 30 6 3 10 15 10 26 0 25 17 59
30 59 6 0 40 -29 76 -65z m-108 -373 c15 -10 63 -26 107 -36 44 -9 94 -22 111
-27 42 -12 90 -11 113 3 16 9 23 7 45 -15 14 -14 26 -30 26 -35 0 -25 141
-150 179 -158 14 -4 35 -17 46 -29 47 -54 205 -111 205 -75 0 6 9 10 20 10 21
0 28 -24 10 -35 -5 -3 -10 -15 -10 -25 0 -23 -70 -160 -82 -160 -4 0 -8 -7 -8
-15 0 -8 -3 -15 -7 -15 -5 0 -28 -18 -53 -40 -25 -22 -51 -40 -57 -40 -7 0
-13 -4 -13 -9 0 -5 -30 -12 -67 -16 -38 -3 -85 -11 -106 -17 -28 -8 -44 -9
-56 -1 -29 18 -79 25 -100 14 -13 -7 -22 -8 -26 -1 -3 5 -25 10 -48 10 -31 0
-47 5 -57 20 -8 11 -20 20 -27 20 -16 0 -113 99 -113 115 0 7 -6 18 -13 24
-14 11 -66 111 -86 166 -17 47 -33 160 -38 278 l-4 107 41 0 c24 0 53 -8 68
-18z m-598 -2676 c0 -3 -4 -8 -10 -11 -5 -3 -10 -1 -10 4 0 6 5 11 10 11 6 0
10 -2 10 -4z m10268 -3358 c-6 -18 -28 -21 -28 -4 0 9 7 16 16 16 9 0 14 -5
12 -12z m-14 -37 c10 -16 -19 -61 -38 -61 -16 0 -17 3 -8 12 7 7 12 22 12 35
0 22 23 32 34 14z"/>
<path d="M8711 11211 c-6 -4 -73 -9 -148 -10 -75 -1 -140 -4 -144 -7 -18 -11
-126 -13 -151 -3 -22 9 -35 8 -63 -5 -24 -12 -59 -17 -103 -16 -77 1 -286 -24
-317 -38 -11 -6 -84 -15 -162 -21 -78 -6 -154 -16 -169 -21 -15 -6 -52 -13
-81 -15 -30 -2 -61 -9 -69 -16 -7 -6 -20 -9 -28 -6 -7 3 -31 1 -52 -4 -118
-29 -376 -81 -416 -84 -26 -2 -54 -9 -63 -17 -9 -7 -32 -27 -51 -45 -20 -17
-45 -33 -56 -35 -12 -2 -23 -8 -25 -13 -2 -6 26 -42 62 -80 35 -39 65 -74 65
-78 0 -11 112 -181 122 -185 4 -2 10 -20 14 -40 4 -20 10 -41 14 -47 19 -24
50 -87 50 -100 0 -29 24 -65 43 -65 11 0 42 -13 69 -30 26 -16 59 -30 71 -30
24 0 185 -77 215 -102 9 -8 35 -23 57 -33 22 -9 48 -24 57 -32 15 -14 20 -12
51 22 24 26 40 36 52 32 18 -8 48 6 79 35 l21 19 -23 42 c-12 23 -22 49 -22
58 0 9 -15 36 -33 60 -18 24 -53 84 -78 133 -39 79 -50 94 -99 125 -31 20 -76
44 -100 55 -25 10 -54 23 -65 29 -101 54 -130 67 -149 67 -13 0 -45 11 -72 25
-27 14 -56 25 -64 25 -41 1 -70 60 -30 60 11 0 36 7 56 15 19 8 74 19 122 26
48 6 96 14 107 18 73 28 101 35 190 48 55 8 157 26 227 39 70 14 165 27 213
29 47 2 91 8 99 14 7 6 15 8 18 6 3 -3 36 -1 74 5 38 6 104 13 147 15 42 1 83
8 90 14 8 6 16 9 18 7 4 -4 288 19 364 29 17 2 165 7 330 11 165 4 307 7 315
7 41 1 349 -14 375 -18 17 -3 54 -10 84 -15 30 -6 87 -10 126 -10 39 0 125 -7
190 -16 66 -9 134 -17 150 -18 35 -4 132 -23 193 -39 49 -13 54 -33 20 -83
-26 -38 -49 -47 -75 -29 -11 7 -36 16 -56 20 -31 6 -43 3 -73 -20 -40 -31 -46
-28 -63 33 -13 46 -24 51 -59 26 -18 -12 -29 -14 -54 -5 -24 9 -36 7 -59 -6
-25 -15 -33 -15 -50 -5 -30 19 -47 8 -122 -79 -70 -81 -87 -93 -87 -60 0 24
-45 36 -81 23 -13 -5 -53 -43 -88 -83 -36 -41 -73 -83 -83 -94 -10 -11 -46
-58 -79 -105 -33 -47 -78 -107 -99 -135 -22 -27 -40 -58 -40 -68 0 -18 -26
-34 -38 -23 -3 4 -1 16 6 26 7 11 12 27 12 35 0 8 4 23 9 33 125 243 132 273
50 237 -39 -18 -89 -70 -89 -93 0 -6 -8 -17 -18 -24 -11 -7 -24 -29 -31 -49
-6 -20 -21 -45 -31 -54 -11 -10 -20 -23 -20 -29 0 -6 -7 -24 -15 -40 -9 -16
-12 -32 -9 -35 4 -3 9 0 11 7 3 6 9 10 13 7 14 -9 0 -34 -16 -28 -11 4 -14 -5
-14 -39 0 -37 5 -48 30 -68 17 -14 37 -31 45 -37 25 -23 60 -14 101 25 41 39
50 54 79 137 10 28 26 62 36 77 11 14 19 29 19 32 0 3 11 21 23 40 17 24 28
32 37 26 11 -7 12 -13 2 -32 -23 -43 -30 -113 -16 -148 9 -19 19 -29 26 -26 7
3 21 9 31 12 9 4 17 10 17 15 0 4 11 20 25 34 25 24 65 34 65 16 0 -18 32 -41
57 -41 27 0 93 60 93 84 0 38 111 205 138 206 16 0 16 -28 0 -63 -8 -16 -21
-27 -33 -27 -17 0 -20 -7 -20 -45 0 -37 3 -45 20 -47 11 -2 21 -11 23 -21 5
-25 -27 -48 -50 -36 -24 13 -36 -11 -13 -27 15 -12 24 -10 58 9 42 23 77 61
77 83 0 33 123 218 179 268 11 11 21 22 21 26 0 13 60 73 87 87 14 7 34 13 44
13 37 0 21 -47 -46 -135 -36 -46 -65 -87 -65 -91 0 -3 -11 -20 -24 -37 -42
-56 -77 -127 -74 -150 2 -18 9 -22 38 -20 19 0 53 6 75 12 67 17 119 30 150
36 17 4 39 10 50 15 31 13 117 19 142 9 25 -9 31 -47 11 -67 -17 -17 32 -59
125 -104 41 -21 67 -13 67 21 0 9 9 27 20 41 11 14 20 33 20 42 0 9 5 20 10
23 6 3 10 15 10 26 0 11 11 35 25 53 23 31 27 50 24 140 -1 16 4 32 11 36 6 4
14 34 17 66 5 53 2 62 -21 89 -21 25 -26 40 -26 86 0 46 -4 59 -25 79 -14 13
-25 33 -25 45 0 49 -43 59 -77 18 -22 -28 -22 -28 -36 -8 -44 61 -53 68 -80
61 -15 -3 -27 -12 -27 -19 0 -18 -43 -57 -63 -57 -9 0 -29 5 -44 11 -15 6 -37
15 -48 19 -11 5 -31 11 -45 14 -14 2 -61 14 -105 25 -44 11 -94 20 -110 21
-17 0 -35 4 -40 9 -10 9 -69 17 -205 27 -41 3 -81 10 -88 16 -7 6 -32 8 -60 4
-32 -4 -66 -1 -101 10 -38 11 -111 16 -264 19 -117 2 -243 5 -282 7 -38 1 -97
1 -130 -1 -33 -1 -101 -1 -151 2 -51 2 -97 1 -103 -2z m-758 -78 c-7 -2 -19
-2 -25 0 -7 3 -2 5 12 5 14 0 19 -2 13 -5z m2643 -224 c9 -16 -63 -86 -76 -73
-6 6 0 22 21 47 32 39 43 44 55 26z m204 -119 c0 -13 -73 -80 -88 -80 -15 0 8
46 41 80 16 18 47 18 47 0z m-3820 -248 c0 -4 -9 -13 -20 -20 -18 -11 -20 -10
-20 8 0 13 7 20 20 20 11 0 20 -3 20 -8z m540 -178 c0 -2 -7 -4 -15 -4 -8 0
-15 4 -15 10 0 5 7 7 15 4 8 -4 15 -8 15 -10z m1770 -124 c0 -5 -4 -10 -10
-10 -5 0 -10 5 -10 10 0 6 5 10 10 10 6 0 10 -4 10 -10z m-2170 -10 c0 -5 -4
-10 -10 -10 -5 0 -10 5 -10 10 0 6 5 10 10 10 6 0 10 -4 10 -10z"/>
<path d="M6080 10982 c-14 -2 -36 -11 -48 -21 -22 -16 -23 -19 -8 -34 9 -8 16
-18 16 -20 0 -3 27 -32 60 -65 64 -65 68 -73 46 -91 -18 -15 -98 5 -127 32
-11 11 -27 16 -36 13 -9 -4 -20 -1 -24 5 -7 12 -62 35 -107 46 -33 8 -52 -14
-52 -59 0 -71 -24 -98 -110 -124 -30 -9 -68 -21 -85 -26 -16 -6 -59 -11 -93
-13 -35 -1 -69 -8 -75 -14 -6 -6 -19 -11 -29 -11 -9 0 -33 -9 -53 -20 -20 -11
-49 -20 -65 -20 -17 0 -30 -4 -30 -8 0 -8 -61 -25 -133 -38 -20 -3 -40 -10
-43 -15 -3 -5 -21 -9 -39 -9 -32 0 -71 -14 -168 -61 -20 -10 -44 -16 -51 -13
-16 6 -50 -9 -81 -35 -11 -10 -46 -25 -77 -35 -32 -9 -60 -21 -63 -26 -4 -6
-13 -10 -22 -10 -9 0 -24 -6 -32 -14 -9 -8 -40 -24 -68 -35 -29 -11 -82 -38
-117 -60 -35 -21 -88 -44 -117 -51 -35 -9 -64 -24 -84 -44 -29 -30 -45 -41
-110 -74 -16 -9 -39 -24 -50 -35 -11 -10 -45 -35 -75 -54 -66 -42 -158 -129
-209 -198 -37 -49 -101 -172 -101 -194 0 -6 -4 -19 -10 -29 -19 -34 -39 -148
-34 -197 3 -27 15 -71 29 -98 27 -56 103 -147 122 -147 7 0 13 -4 13 -9 0 -11
95 -52 129 -56 160 -20 229 -11 338 44 34 17 67 31 73 31 6 0 26 11 43 24 18
13 58 36 90 52 31 15 72 42 90 59 17 16 41 34 52 40 11 6 20 17 20 25 0 9 -8
14 -20 14 -28 -2 -65 -15 -65 -23 0 -6 -191 -105 -240 -124 -14 -5 -43 -19
-65 -30 -66 -35 -292 -25 -339 15 -6 4 -20 8 -33 8 -34 0 -92 57 -120 119 -22
49 -25 69 -25 167 0 104 2 115 31 170 27 53 90 114 118 114 5 0 8 -46 8 -102
0 -94 2 -106 25 -136 13 -18 45 -45 70 -61 41 -26 64 -35 125 -48 11 -3 77 -4
147 -3 114 1 133 4 205 31 71 28 183 94 183 108 0 4 17 15 38 26 51 26 71 44
99 88 l24 38 -32 67 c-24 54 -39 73 -72 92 -74 44 -106 52 -164 40 -173 -33
-163 -30 -163 -55 0 -32 17 -35 91 -19 147 31 229 10 229 -59 0 -40 -39 -111
-64 -115 -9 -2 -39 3 -66 12 -89 29 -183 19 -292 -32 -38 -17 -48 -35 -27 -47
9 -6 28 -1 104 29 27 12 57 13 183 8 28 -1 45 -7 49 -18 6 -17 -28 -54 -51
-54 -8 0 -17 -4 -20 -9 -3 -5 -23 -12 -43 -15 -102 -17 -141 -25 -178 -35
-105 -28 -252 4 -316 68 -51 51 -57 88 -25 181 21 64 31 80 68 107 24 18 50
33 59 33 9 0 19 7 23 15 3 8 26 25 51 37 37 18 44 26 39 43 -6 19 -6 19 13 3
18 -16 21 -16 53 5 73 46 352 187 370 187 6 0 18 4 28 10 36 20 133 60 146 60
7 0 15 3 19 6 3 3 41 19 84 34 43 15 108 42 145 59 37 17 76 31 87 31 24 0 88
26 96 40 3 5 14 10 24 10 16 0 79 26 123 50 10 6 29 10 43 10 14 0 38 6 53 14
15 8 52 15 82 16 86 4 90 3 90 -25 0 -15 8 -29 23 -36 12 -7 35 -25 51 -41 17
-15 35 -28 41 -28 7 0 58 -33 114 -72 157 -111 201 -131 201 -89 0 12 14 26
38 38 34 17 37 21 34 56 -2 20 1 37 5 38 193 12 223 12 298 0 39 -5 93 -10
122 -11 28 0 55 -4 58 -10 3 -5 38 -10 77 -10 l70 0 -6 26 c-7 27 -44 77 -108
147 -37 40 -48 67 -28 67 5 0 24 -16 42 -37 18 -20 39 -41 47 -47 45 -37 101
-99 101 -114 0 -23 63 -64 92 -60 19 2 23 9 22 35 -1 18 -11 44 -23 59 -12 15
-21 34 -22 43 0 9 -13 37 -27 63 -15 25 -38 66 -51 89 -13 24 -30 49 -37 57
-8 7 -14 17 -14 22 0 5 -17 35 -39 67 -21 32 -51 81 -66 110 -23 42 -38 56
-83 78 -41 20 -63 25 -86 20 -113 -24 -158 -15 -236 45 -36 29 -67 37 -110 32z"/>
<path d="M5517 10318 c-8 -28 19 -83 52 -108 14 -11 33 -26 41 -34 19 -18 118
-86 125 -86 3 0 24 -12 47 -26 33 -21 45 -24 63 -16 29 13 44 81 21 94 -8 5
-35 24 -60 43 -25 19 -63 43 -86 55 -22 11 -49 29 -60 40 -25 25 -94 60 -118
60 -12 0 -22 -9 -25 -22z"/>
<path d="M5469 10104 l-24 -26 23 -15 c12 -9 22 -24 22 -35 0 -14 5 -18 16
-14 12 5 15 2 10 -9 -4 -12 6 -21 37 -35 62 -29 90 -25 134 15 l38 36 -28 24
c-15 14 -37 25 -47 25 -10 0 -22 5 -25 10 -3 6 -15 10 -26 10 -11 0 -39 9 -61
20 -23 11 -42 20 -43 20 -1 0 -12 -12 -26 -26z"/>
<path d="M5883 10058 c2 -7 14 -13 27 -13 13 0 25 6 28 13 2 8 -7 12 -28 12
-21 0 -30 -4 -27 -12z"/>
<path d="M8856 9849 c-14 -11 -26 -26 -26 -33 0 -7 -9 -21 -19 -30 -24 -22
-91 -150 -91 -175 0 -10 -3 -21 -7 -24 -3 -4 -8 -17 -9 -30 -1 -12 -6 -42 -10
-66 -7 -42 -6 -43 16 -36 19 6 21 4 16 -13 -12 -36 11 -33 47 5 28 29 37 48
42 90 8 62 27 114 49 133 9 7 16 18 16 25 0 8 11 36 25 64 24 48 25 52 10 81
-18 36 -24 37 -59 9z"/>
<path d="M9775 9795 c-22 -8 -57 -15 -77 -15 -21 0 -52 -9 -70 -20 -18 -11
-43 -20 -55 -20 -24 0 -106 -38 -111 -52 -2 -4 -12 -8 -22 -8 -11 0 -49 -17
-85 -37 -36 -21 -78 -45 -94 -53 -41 -23 -104 -87 -96 -99 3 -6 1 -11 -4 -11
-6 0 -11 -4 -11 -10 0 -15 51 -12 64 4 11 14 77 49 198 105 76 35 240 91 268
91 10 0 21 4 24 9 9 14 82 23 191 25 85 1 107 -2 146 -21 25 -13 51 -23 57
-23 7 0 21 -6 32 -12 17 -11 23 -9 41 8 l21 21 -27 26 c-33 30 -126 77 -152
77 -11 0 -23 4 -28 9 -19 18 -167 22 -210 6z"/>
<path d="M7190 9712 c0 -4 -84 -7 -187 -6 -133 2 -194 -1 -212 -10 -14 -7 -34
-11 -45 -8 -10 2 -28 0 -40 -6 -52 -24 -79 -32 -106 -32 -16 0 -32 -4 -35 -10
-3 -5 -18 -10 -33 -10 -15 0 -40 -7 -56 -15 -15 -8 -40 -15 -54 -15 -14 0 -40
-12 -59 -26 -19 -14 -51 -30 -71 -36 -20 -6 -56 -28 -81 -49 -24 -21 -52 -39
-63 -39 -10 0 -21 -7 -24 -15 -4 -8 -10 -15 -15 -15 -15 0 -169 -123 -169
-135 0 -7 -7 -18 -15 -25 -24 -20 -18 -40 11 -40 27 0 54 18 129 83 24 21 59
42 77 48 19 5 43 17 54 27 20 18 66 50 99 68 11 6 29 15 40 22 39 21 131 60
170 72 22 7 55 19 73 26 18 8 44 14 57 14 13 0 26 4 29 9 6 9 27 13 161 31
155 21 174 22 251 6 43 -9 87 -22 99 -30 11 -7 43 -21 72 -31 43 -15 54 -16
67 -6 9 8 16 19 16 25 0 16 -38 49 -72 64 -15 6 -34 25 -43 42 -15 29 -25 38
-25 22z"/>
<path d="M4997 9603 c-20 -19 -1 -46 118 -167 133 -135 183 -169 300 -202 33
-10 65 -20 70 -24 6 -4 37 -10 70 -13 208 -21 225 -19 254 34 38 67 26 78 -83
78 -52 0 -105 5 -119 10 -14 5 -54 13 -89 16 -93 10 -148 23 -198 46 -25 12
-56 27 -70 33 -32 14 -57 36 -139 117 -63 64 -100 87 -114 72z"/>
<path d="M9840 9591 c-14 -5 -48 -9 -75 -10 -55 -1 -155 -35 -293 -98 -86 -40
-261 -196 -262 -234 0 -15 7 -32 14 -39 21 -16 59 -9 71 15 15 30 67 85 79 85
7 0 18 9 26 20 16 22 52 26 68 7 6 -6 13 -24 17 -39 6 -23 3 -28 -17 -32 -104
-22 -103 -21 -103 -45 0 -36 26 -47 65 -27 19 9 52 19 74 22 23 3 50 9 61 13
11 5 35 13 53 20 17 6 46 17 62 23 24 10 35 10 50 0 11 -7 20 -8 20 -2 0 9 57
26 95 29 152 8 260 9 269 2 6 -4 36 -11 66 -15 30 -4 79 -16 108 -28 93 -37
92 16 -1 83 -28 20 -53 52 -77 97 -38 72 -96 121 -168 142 -51 15 -172 21
-202 11z m199 -101 c131 -47 150 -138 24 -110 -23 6 -69 8 -100 7 -68 -5 -84
8 -76 63 10 64 55 76 152 40z"/>
<path d="M6825 9530 c-67 -9 -174 -46 -207 -70 -15 -11 -33 -20 -40 -20 -7 0
-26 -9 -43 -21 -16 -11 -61 -36 -100 -55 -78 -39 -102 -59 -152 -127 -36 -49
-36 -62 2 -69 11 -2 20 -10 20 -18 0 -11 -15 -16 -55 -20 -55 -6 -100 -23
-100 -40 0 -13 30 -41 56 -50 18 -7 39 -1 94 26 39 19 85 37 103 41 18 3 48
13 67 23 38 19 114 46 170 62 19 5 53 17 75 27 100 46 402 69 468 36 16 -8 37
-15 46 -15 9 0 34 -9 56 -20 36 -18 40 -19 49 -3 10 18 -14 43 -73 75 -31 17
-32 20 -25 63 10 68 -29 112 -150 167 -40 19 -159 23 -261 8z m248 -82 c38
-22 67 -51 67 -68 0 -37 -31 -47 -136 -49 -116 -1 -127 5 -122 66 3 37 4 38
58 50 74 15 106 15 133 1z m-609 -217 c17 -19 17 -21 -8 -45 -24 -25 -55 -33
-69 -20 -7 7 22 64 38 76 15 11 20 10 39 -11z"/>
<path d="M8445 9340 c-11 -5 -32 -9 -47 -9 -25 -1 -42 -21 -18 -21 6 0 10 -4
10 -8 0 -4 -15 -8 -33 -8 -23 0 -54 -14 -103 -49 -60 -42 -73 -56 -83 -92 -21
-68 5 -83 61 -35 76 63 154 91 278 102 78 6 111 4 185 -12 49 -10 97 -26 106
-34 23 -21 59 -18 59 5 0 24 -94 107 -161 144 -46 24 -62 27 -143 26 -50 0
-100 -4 -111 -9z m302 -92 c-3 -8 -6 -5 -6 6 -1 11 2 17 5 13 3 -3 4 -12 1
-19z"/>
<path d="M4467 9073 c-34 -32 -64 -60 -67 -63 -5 -6 -85 -44 -165 -78 -85 -36
-135 -45 -265 -45 -146 0 -174 7 -279 75 -66 43 -76 47 -89 34 -13 -13 -13
-18 0 -38 26 -39 175 -115 253 -129 88 -15 284 -6 327 16 17 8 38 15 47 15 26
0 154 57 180 80 13 11 35 27 50 34 37 20 68 48 96 91 20 29 23 40 14 51 -20
24 -38 16 -102 -43z"/>
<path d="M5341 9114 c-24 -7 -47 -11 -52 -8 -4 2 -16 1 -26 -4 -10 -6 -31 -16
-48 -23 -16 -8 -34 -19 -40 -26 -5 -6 -29 -22 -53 -35 -55 -31 -142 -116 -142
-140 0 -25 25 -23 64 7 18 14 42 25 54 25 11 0 22 4 24 10 3 10 103 50 126 50
8 0 26 8 40 18 58 40 122 57 252 66 58 4 60 5 60 29 0 19 -8 26 -39 35 -51 16
-165 14 -220 -4z"/>
<path d="M8817 9094 c-3 -4 -47 -6 -97 -5 -93 1 -178 -15 -254 -48 -23 -10
-57 -25 -76 -32 -51 -19 -90 -50 -96 -76 -4 -13 -11 -23 -17 -23 -7 0 -8 -3
-1 -10 11 -11 109 14 119 30 12 19 96 51 148 57 29 3 57 9 62 13 19 14 80 20
202 21 92 1 125 5 134 15 19 23 -18 57 -56 51 -16 -3 -37 -1 -46 4 -9 4 -19 6
-22 3z"/>
<path d="M5780 9010 c-14 -4 -40 -8 -59 -9 -19 -1 -60 -10 -92 -22 -120 -44
-66 -89 68 -58 27 6 56 15 65 20 10 5 26 9 35 9 10 0 29 9 43 19 20 16 22 21
11 35 -14 17 -32 19 -71 6z"/>
<path d="M6950 8976 c-4 -3 -35 -7 -70 -10 -92 -7 -126 -15 -145 -36 -24 -27
-9 -43 34 -38 26 4 197 -11 259 -22 1 0 2 -6 2 -14 0 -9 -17 -16 -46 -21 -44
-6 -84 -33 -84 -56 0 -8 11 -9 38 -3 39 8 281 13 320 6 26 -5 29 -27 5 -37
-22 -10 -113 -23 -216 -31 -62 -5 -77 -10 -73 -21 4 -11 1 -13 -14 -8 -14 4
-20 2 -20 -9 0 -18 34 -24 75 -15 94 23 411 11 402 -15 -5 -14 -64 -25 -137
-25 -31 -1 -61 -6 -67 -12 -7 -7 -40 -11 -79 -11 -70 1 -124 -17 -124 -43 0
-21 33 -27 86 -14 67 15 175 14 185 -2 6 -10 11 -10 22 0 19 15 129 11 134 -5
6 -17 -26 -25 -48 -13 -15 7 -24 7 -35 -2 -13 -11 -77 -26 -199 -49 -81 -15
-93 -19 -99 -35 -9 -25 30 -39 78 -26 57 15 167 25 251 22 88 -3 197 -23 202
-37 3 -10 -42 -16 -399 -58 -99 -11 -132 -26 -111 -47 14 -14 111 -13 127 1
17 13 365 5 379 -9 6 -6 8 -13 6 -16 -3 -2 -66 -14 -140 -25 -74 -11 -153 -25
-177 -30 -23 -6 -69 -10 -102 -10 -68 0 -112 -16 -108 -39 3 -14 20 -15 118
-12 63 1 137 7 164 12 27 5 96 9 153 9 92 0 104 -2 99 -16 -3 -9 -6 -18 -6
-20 0 -2 -31 -4 -68 -4 -37 0 -72 -4 -78 -10 -12 -12 -293 -60 -355 -60 -55 0
-91 -28 -64 -50 12 -10 34 -9 118 4 158 27 159 27 174 14 9 -8 17 -8 21 -2 9
12 124 34 181 34 29 0 44 -5 48 -16 9 -24 -13 -38 -75 -46 -90 -11 -189 -28
-292 -49 -53 -10 -118 -19 -146 -19 -40 0 -56 -5 -84 -29 -31 -26 -33 -30 -17
-37 10 -3 42 1 70 9 29 9 66 20 82 23 17 4 37 9 45 11 8 2 56 8 105 13 50 4
95 9 100 10 6 1 34 2 63 1 45 -1 53 -4 50 -18 -3 -18 -124 -56 -233 -74 -27
-4 -72 -13 -100 -18 -27 -6 -70 -15 -95 -20 -25 -5 -57 -7 -71 -4 -32 6 -57
-20 -39 -42 12 -14 54 -12 95 5 35 15 78 22 153 27 118 7 91 -24 -58 -68 -25
-7 -49 -16 -55 -20 -9 -6 -85 -16 -188 -24 -15 -1 -30 -5 -34 -9 -3 -3 -27 -6
-53 -6 -25 0 -51 -5 -56 -10 -7 -7 -105 -10 -265 -10 -324 1 -499 11 -524 30
-5 4 -29 10 -52 13 -24 3 -62 14 -86 26 -23 11 -58 24 -77 27 -19 4 -52 18
-72 31 -21 12 -49 23 -63 23 -14 0 -28 6 -31 14 -3 8 -23 21 -44 30 -21 8 -53
28 -72 43 -114 96 -158 119 -158 84 0 -11 14 -34 30 -51 17 -17 30 -36 30 -43
1 -39 257 -216 313 -217 10 0 27 -9 39 -20 12 -11 43 -23 70 -26 26 -4 53 -13
59 -20 6 -8 22 -14 35 -14 12 0 35 -5 50 -10 15 -6 51 -13 79 -15 29 -3 65 -9
79 -15 36 -13 186 -16 306 -6 65 5 110 4 142 -4 37 -10 55 -9 85 1 21 7 65 14
98 15 110 3 282 33 338 58 18 8 68 22 112 32 44 9 84 21 89 26 6 4 21 8 34 8
16 0 22 4 19 13 -4 10 2 13 18 10 38 -8 195 76 222 120 4 7 23 24 41 39 84 70
176 231 199 351 14 77 13 111 -6 192 -26 111 -42 143 -138 272 -85 114 -133
163 -159 163 -8 0 -14 3 -14 8 0 10 -134 72 -190 88 -14 3 -45 16 -70 27 -25
11 -61 22 -80 23 -19 2 -64 6 -100 10 -36 3 -67 3 -70 0z m600 -506 c0 -5 -5
-10 -11 -10 -5 0 -7 5 -4 10 3 6 8 10 11 10 2 0 4 -4 4 -10z"/>
<path d="M9003 8964 c-29 -12 -10 -42 50 -81 34 -23 82 -60 107 -82 25 -23 62
-51 82 -63 40 -23 87 -82 111 -139 34 -82 30 -247 -9 -321 -8 -14 -14 -33 -14
-42 0 -9 -7 -19 -15 -22 -8 -4 -15 -11 -15 -16 0 -6 -13 -23 -29 -39 -24 -23
-36 -27 -63 -23 -29 5 -37 1 -67 -35 -39 -47 -61 -52 -61 -16 0 25 -32 51 -50
40 -6 -4 -22 -29 -35 -56 -25 -49 -50 -63 -61 -34 -4 8 -2 21 3 28 21 25 21
56 2 73 -19 17 -21 17 -47 -3 -15 -11 -29 -31 -30 -44 -6 -37 -21 -52 -39 -37
-11 9 -13 24 -8 59 6 44 5 47 -20 53 -28 7 -47 -8 -60 -46 -4 -10 -15 -18 -25
-18 -21 0 -35 29 -20 44 5 5 10 19 10 31 0 12 5 26 10 31 8 8 6 15 -4 23 -16
13 -40 6 -31 -9 3 -4 -3 -7 -12 -6 -8 0 -23 -12 -33 -29 -19 -35 -60 -47 -60
-18 0 11 6 25 12 31 10 10 10 15 -2 22 -24 15 -48 12 -70 -10 -11 -11 -51 -30
-88 -42 -37 -12 -79 -30 -94 -40 -14 -10 -30 -18 -35 -18 -5 0 -20 -11 -33
-25 -13 -14 -28 -25 -34 -25 -7 0 -27 -13 -46 -29 -76 -62 -103 -51 -169 63
l-43 76 4 93 c3 69 9 103 25 133 23 45 18 66 -14 61 -31 -4 -52 -25 -80 -80
-22 -43 -25 -65 -26 -156 -2 -91 1 -112 20 -150 12 -24 20 -48 17 -52 -3 -5
13 -21 35 -37 22 -16 38 -32 35 -34 -3 -3 23 -25 57 -48 58 -40 65 -42 94 -31
17 6 48 11 69 11 21 0 50 8 65 19 15 11 43 22 64 26 20 4 56 19 79 34 24 15
68 36 98 46 30 11 60 22 65 26 20 14 81 12 119 -4 21 -10 41 -17 43 -17 3 0
18 -9 34 -21 16 -11 33 -17 39 -14 5 3 10 -1 10 -9 0 -9 8 -16 18 -16 10 0 22
-4 28 -9 5 -5 30 -21 56 -35 48 -27 133 -36 154 -17 5 5 29 11 54 14 80 10
141 24 152 35 7 7 20 12 30 12 20 0 86 65 138 137 14 19 36 35 54 39 59 12 87
34 108 82 25 59 25 123 -2 210 -23 76 -37 96 -97 136 -29 19 -51 47 -73 89
-35 68 -90 146 -104 147 -4 0 -30 19 -56 43 -26 24 -75 57 -108 75 -32 17 -64
38 -70 45 -11 13 -76 20 -99 11z m367 -924 c0 -21 -15 -27 -25 -10 -7 12 2 30
16 30 5 0 9 -9 9 -20z"/>
<path d="M4375 8854 c-66 -61 -147 -117 -185 -128 -14 -4 -50 -14 -80 -23 -64
-18 -207 -20 -238 -4 -11 6 -45 11 -75 11 -45 0 -58 5 -87 30 -18 17 -37 30
-40 30 -32 0 -3 -56 63 -121 31 -30 83 -66 135 -92 72 -35 96 -42 159 -46 66
-3 150 10 178 29 6 3 39 17 74 31 65 25 154 100 171 144 11 28 6 188 -6 192
-5 1 -36 -22 -69 -53z"/>
<path d="M11952 8803 c-9 -15 10 -75 28 -93 3 -3 14 -32 23 -65 18 -60 40
-115 57 -147 6 -10 7 -44 3 -77 -4 -42 -2 -65 7 -76 9 -10 9 -19 2 -27 -6 -7
-12 -42 -15 -78 -3 -36 -10 -87 -16 -115 -7 -27 -16 -70 -20 -95 -5 -25 -20
-67 -33 -95 -14 -27 -31 -71 -38 -97 -7 -27 -16 -48 -21 -48 -4 0 -28 -40 -52
-88 -25 -48 -59 -110 -76 -137 -17 -27 -31 -57 -31 -66 0 -10 -5 -21 -11 -25
-9 -5 -43 -53 -95 -133 -12 -20 -89 -104 -168 -185 -32 -34 -70 -77 -85 -96
-14 -19 -43 -53 -63 -75 -21 -22 -38 -43 -38 -47 0 -15 27 -8 46 13 10 11 32
27 49 35 16 8 55 28 85 45 30 17 81 44 112 60 31 15 59 37 62 47 4 12 19 22
38 26 34 7 138 80 138 97 0 5 23 32 51 60 44 44 99 134 99 165 0 7 7 14 15 18
8 3 15 13 15 22 0 9 9 27 20 41 11 14 20 32 20 40 0 8 15 40 33 72 25 41 35
74 40 121 9 86 25 100 118 100 37 0 71 -4 74 -10 3 -5 17 -10 30 -10 13 0 26
-4 30 -9 3 -6 37 -9 75 -9 38 1 75 -3 82 -9 7 -7 38 -14 68 -17 64 -5 175 -45
228 -81 20 -14 41 -25 47 -25 15 0 196 -78 258 -111 9 -5 25 -13 35 -18 69
-34 93 -50 136 -95 68 -70 126 -145 126 -163 0 -8 8 -27 19 -41 23 -33 32 -75
36 -161 3 -86 -27 -154 -104 -234 -31 -32 -60 -65 -64 -73 -7 -12 -72 -61
-119 -89 -62 -37 -107 -72 -108 -82 0 -6 15 -31 33 -55 18 -24 36 -50 39 -59
4 -9 18 -19 33 -23 15 -4 60 -22 102 -41 41 -19 79 -35 84 -35 15 0 53 -24 67
-42 7 -10 22 -18 34 -18 11 0 32 -8 46 -19 15 -10 37 -21 49 -25 19 -6 73 -44
113 -79 40 -35 97 -75 116 -81 11 -3 50 -35 85 -70 105 -103 149 -166 186
-268 22 -63 24 -80 17 -137 -4 -37 -8 -79 -10 -96 -1 -16 -9 -47 -18 -67 -9
-21 -16 -40 -16 -43 0 -10 -53 -79 -67 -88 -7 -4 -13 -13 -13 -20 0 -7 -24
-37 -52 -68 -53 -55 -114 -89 -163 -89 -13 0 -26 -4 -29 -9 -31 -50 -368 -58
-420 -10 -13 12 -43 11 -51 -1 -10 -16 6 -60 26 -71 20 -10 161 -52 217 -64
49 -10 231 -8 245 3 7 5 33 15 59 22 26 7 53 19 59 26 6 8 17 14 23 14 6 0 29
12 51 27 22 15 52 35 67 43 40 22 168 139 168 153 0 7 9 18 20 25 11 7 20 21
20 31 0 11 11 41 24 68 20 42 39 127 38 173 -4 101 -36 235 -69 285 -7 11 -13
28 -13 39 0 10 -10 29 -22 41 -34 32 -58 63 -70 91 -6 13 -19 26 -29 29 -10 3
-21 15 -24 25 -3 10 -15 22 -26 25 -11 4 -43 27 -70 51 -27 24 -53 44 -57 44
-4 0 -26 18 -50 40 -24 22 -51 40 -60 40 -9 0 -37 14 -62 30 -25 16 -49 30
-53 30 -5 0 -34 17 -65 38 -32 22 -84 47 -117 56 -157 46 -202 59 -220 67 -11
4 -35 11 -52 14 -18 4 -33 10 -33 15 0 15 57 50 82 50 26 0 154 93 241 175 31
30 64 55 72 55 9 0 15 9 15 24 0 14 5 28 10 31 6 4 21 28 35 55 21 41 24 61
24 139 -1 83 -4 98 -33 154 -61 117 -80 147 -93 147 -7 0 -19 13 -27 28 -8 16
-32 44 -54 63 -61 54 -76 67 -96 88 -10 11 -35 26 -55 32 -20 6 -43 17 -51 24
-20 17 -231 125 -243 125 -6 0 -35 12 -66 27 -31 14 -65 29 -76 33 -11 4 -33
13 -48 19 -16 6 -32 9 -36 6 -5 -2 -23 0 -42 6 -32 11 -105 26 -159 33 -14 2
-50 9 -80 14 -30 6 -115 11 -188 11 -73 -1 -136 2 -139 5 -3 3 -5 37 -3 76 6
192 1 322 -16 395 -25 102 -65 206 -91 233 -7 7 -13 18 -13 23 0 16 -44 77
-73 99 -24 19 -26 19 -35 3z m1388 -1173 c0 -5 -4 -10 -9 -10 -6 0 -13 5 -16
10 -3 6 1 10 9 10 9 0 16 -4 16 -10z"/>
<path d="M5858 8803 c-10 -2 -18 -9 -18 -14 0 -5 -8 -9 -17 -10 -10 0 -31 -9
-48 -20 -16 -10 -51 -29 -77 -42 -85 -44 -173 -124 -256 -235 -26 -35 -68 -89
-93 -120 -46 -57 -58 -80 -65 -117 -2 -11 -11 -46 -20 -78 -19 -64 -12 -84 28
-74 19 5 28 21 47 82 12 41 35 93 49 114 50 73 203 241 221 241 3 0 39 32 79
71 40 38 97 85 125 103 75 49 100 73 93 91 -5 15 -16 17 -48 8z"/>
<path d="M5214 8768 c-41 -31 -153 -148 -165 -173 -5 -11 -18 -33 -28 -50 -11
-16 -20 -42 -20 -57 -1 -16 -5 -28 -11 -28 -5 0 -10 -13 -10 -29 0 -17 -4 -32
-9 -35 -8 -6 -21 -68 -27 -131 -4 -45 30 -165 46 -165 5 0 14 -17 21 -37 12
-38 122 -163 143 -163 7 0 22 7 34 16 19 13 20 19 11 36 -6 12 -24 32 -40 46
-16 13 -29 30 -29 38 0 9 -9 35 -21 60 -30 66 -42 190 -23 244 9 24 14 73 13
115 -2 71 -1 73 46 140 26 38 70 90 96 115 52 50 58 64 33 74 -24 9 -28 8 -60
-16z"/>
<path d="M8208 8640 c-19 -15 -20 -20 -10 -46 19 -44 111 -114 151 -114 9 0
22 -5 28 -11 13 -13 43 -5 77 22 19 15 26 30 26 54 0 40 -23 53 -159 88 -88
23 -93 23 -113 7z"/>
<path d="M4553 8305 c-10 -14 -28 -38 -40 -53 -13 -15 -23 -32 -23 -38 0 -6
-9 -19 -19 -28 -10 -9 -22 -38 -26 -64 -4 -25 -13 -55 -21 -66 -8 -11 -14 -43
-14 -71 -1 -27 -7 -61 -15 -75 -17 -30 -21 -359 -5 -388 15 -28 60 -173 60
-196 0 -11 9 -36 20 -54 11 -18 20 -41 20 -51 0 -10 7 -24 16 -31 8 -8 22 -29
29 -48 8 -18 28 -50 44 -70 15 -21 31 -47 35 -59 4 -12 16 -25 26 -28 10 -3
17 -12 14 -19 -5 -13 259 -286 276 -286 6 0 27 -15 47 -34 21 -18 54 -43 73
-54 118 -69 168 -95 200 -100 19 -3 56 -18 81 -34 59 -36 184 -58 233 -40 18
7 44 12 58 12 29 0 88 27 88 41 0 5 44 9 103 9 128 -2 219 5 277 20 25 6 59
14 75 18 17 4 47 18 68 31 33 20 36 26 25 38 -20 19 -60 18 -151 -2 -56 -12
-81 -14 -91 -6 -7 6 -46 13 -87 16 -72 6 -144 21 -164 36 -5 4 -37 7 -71 7
-34 0 -70 4 -80 10 -10 5 -30 14 -44 20 -174 70 -213 88 -223 102 -14 19 -59
44 -99 54 -30 7 -146 91 -193 140 -16 17 -41 37 -55 43 -14 7 -32 17 -40 22
-8 5 -27 14 -42 22 -16 7 -28 18 -28 25 0 7 -9 18 -20 24 -11 6 -20 15 -20 21
0 5 -11 20 -24 32 -22 19 -71 90 -153 222 -13 20 -23 45 -23 55 0 11 -9 35
-20 55 -11 20 -20 43 -20 53 0 9 -12 44 -25 77 -14 33 -30 89 -36 124 -5 36
-13 69 -17 75 -14 23 -16 189 -2 236 5 19 10 54 10 77 0 27 11 62 33 105 33
63 37 98 12 98 -8 0 -22 -11 -32 -25z m1197 -1759 c0 -3 -4 -8 -10 -11 -5 -3
-10 -1 -10 4 0 6 5 11 10 11 6 0 10 -2 10 -4z"/>
<path d="M9120 7186 c0 -14 4 -35 9 -48 12 -33 -11 -67 -34 -48 -8 7 -15 19
-15 26 0 17 -30 18 -50 1 -9 -7 -26 -28 -38 -48 -25 -42 -70 -75 -83 -62 -4 4
-2 27 6 50 17 48 11 73 -15 73 -19 0 -55 -39 -93 -100 -22 -35 -131 -119 -154
-120 -23 0 -13 20 48 96 63 80 73 116 33 122 -14 2 -31 -8 -49 -30 -15 -18
-71 -78 -123 -133 -53 -55 -95 -104 -94 -109 2 -5 -4 -6 -13 -2 -9 3 -26 -6
-44 -24 -15 -17 -33 -30 -38 -30 -5 0 -20 -11 -33 -25 -13 -14 -28 -25 -33
-25 -5 0 -22 -11 -39 -25 -16 -14 -36 -25 -44 -25 -7 0 -20 -10 -28 -22 -9
-13 -37 -34 -63 -47 -26 -14 -52 -29 -58 -35 -10 -11 -154 -76 -167 -76 -4 0
-36 -13 -70 -28 -35 -16 -85 -35 -113 -42 -27 -7 -55 -17 -61 -22 -6 -4 -33
-11 -60 -14 -27 -3 -71 -14 -99 -25 -46 -17 -145 -36 -320 -60 -38 -6 -101
-17 -140 -26 -38 -8 -104 -19 -145 -23 -41 -5 -93 -13 -115 -20 -22 -6 -66
-15 -99 -20 -32 -5 -67 -17 -77 -26 -19 -17 -19 -18 2 -40 18 -19 29 -23 63
-18 23 2 55 9 73 15 33 10 297 6 346 -6 16 -4 33 -2 41 5 10 8 20 8 33 2 12
-7 31 -6 57 3 22 8 43 12 48 9 4 -3 46 4 93 16 47 12 116 22 154 23 61 2 72 6
94 29 21 23 80 48 113 48 6 0 24 6 40 14 53 26 89 39 103 37 8 -2 41 -29 73
-62 32 -32 63 -59 69 -59 9 0 52 -19 154 -66 87 -40 234 -47 435 -21 150 20
219 34 278 53 67 23 204 86 221 102 7 7 41 27 75 44 33 17 81 47 106 67 62 49
160 148 160 160 0 5 12 16 28 23 25 13 30 11 72 -18 25 -17 56 -34 70 -37 14
-4 36 -17 50 -29 17 -16 62 -32 145 -52 66 -15 129 -32 140 -36 52 -22 257
-41 485 -46 189 -3 216 -2 227 12 11 15 13 15 28 0 9 -9 20 -16 25 -16 17 0
115 40 184 75 39 19 78 35 87 35 10 0 21 5 24 10 3 6 15 10 27 10 11 0 31 9
45 20 14 11 34 20 43 20 10 0 23 7 30 15 7 8 17 15 23 15 5 0 24 11 41 24 17
13 56 35 86 50 60 29 191 146 218 194 9 17 30 46 47 64 16 18 44 61 62 96 l32
63 -22 9 c-18 7 -28 2 -57 -30 -66 -73 -204 -160 -252 -160 -11 0 -31 -11 -45
-25 -15 -13 -40 -27 -55 -30 -15 -4 -30 -11 -33 -16 -4 -5 -14 -9 -23 -9 -9 0
-39 -12 -67 -25 -27 -14 -55 -25 -62 -25 -7 0 -29 -10 -50 -21 -21 -12 -60
-25 -88 -30 -27 -4 -72 -13 -100 -19 -113 -25 -169 -30 -360 -36 -223 -6 -282
1 -445 52 -30 9 -84 23 -120 30 -101 20 -199 49 -212 62 -7 7 -20 12 -30 12
-10 0 -18 4 -18 9 0 5 -15 13 -32 17 -42 9 -98 35 -98 46 0 4 -8 8 -18 8 -24
0 -87 36 -154 90 -46 36 -66 62 -104 135 -25 49 -52 93 -58 97 -21 14 -36 8
-36 -16z"/>
<path d="M6860 6607 c-14 -8 -34 -19 -45 -25 -56 -31 -129 -62 -162 -68 -53
-9 -73 -22 -73 -44 0 -23 -25 -27 -34 -5 -7 19 -40 19 -56 0 -7 -8 -30 -18
-52 -21 -21 -4 -41 -10 -43 -15 -3 -4 -27 -11 -53 -15 -26 -4 -57 -13 -68 -21
-15 -9 -46 -13 -97 -12 -44 2 -81 -2 -89 -8 -7 -7 -95 -17 -198 -23 -102 -7
-188 -14 -192 -17 -5 -2 -8 -15 -8 -29 0 -17 8 -27 27 -35 28 -11 96 -21 153
-23 19 -1 45 -7 58 -14 13 -8 31 -10 40 -6 9 4 69 6 133 5 65 -2 132 2 150 7
19 6 70 16 114 22 88 11 209 52 241 81 11 11 25 19 31 19 35 0 143 63 188 110
28 28 67 68 88 87 20 20 37 42 37 50 0 17 -57 17 -90 0z m-668 -269 c-9 -9
-15 -9 -24 0 -9 9 -7 12 12 12 19 0 21 -3 12 -12z m-137 -78 c3 -5 -1 -10 -9
-10 -9 0 -16 5 -16 10 0 6 4 10 9 10 6 0 13 -4 16 -10z"/>
<path d="M9299 6217 c-157 -118 -225 -160 -360 -221 -31 -15 -60 -26 -66 -26
-5 0 -25 -8 -44 -17 -36 -18 -88 -27 -254 -44 -143 -14 -177 -13 -300 5 -125
19 -183 34 -206 53 -8 7 -19 13 -23 13 -20 0 -150 96 -177 130 -31 38 -65 55
-91 45 -20 -8 -40 -62 -33 -86 8 -23 89 -134 106 -145 8 -5 32 -53 30 -61 0
-2 8 -19 19 -38 11 -20 20 -42 20 -49 0 -7 17 -33 39 -56 33 -36 41 -41 59
-31 17 9 23 7 36 -14 9 -14 22 -25 28 -25 6 0 33 -14 59 -31 27 -17 53 -27 60
-24 6 4 14 2 18 -4 11 -18 40 -2 56 30 11 21 25 30 53 34 20 3 45 10 54 16 10
5 26 9 35 9 10 1 36 8 58 16 66 25 107 35 180 45 38 4 74 14 80 22 5 7 37 19
69 26 33 7 69 23 81 35 20 20 47 36 168 100 26 14 59 38 72 54 12 15 36 34 51
42 63 33 200 189 190 215 -8 22 -18 19 -67 -18z m-1271 -433 c12 -8 22 -12 22
-8 0 3 6 2 13 -4 33 -27 127 -53 212 -57 70 -4 91 -8 93 -20 6 -26 -123 -20
-221 11 -118 37 -157 57 -157 83 0 15 12 14 38 -5z m459 -60 c-3 -3 -12 -4
-19 -1 -8 3 -5 6 6 6 11 1 17 -2 13 -5z m-297 -89 c0 -8 -4 -15 -9 -15 -13 0
-22 16 -14 24 11 11 23 6 23 -9z"/>
<path d="M13002 5268 c-13 -13 -15 -68 -4 -105 9 -27 82 -105 158 -166 32 -26
71 -58 85 -71 14 -12 50 -31 80 -40 30 -10 59 -21 64 -26 25 -19 168 -42 214
-34 53 9 92 7 106 -7 15 -15 35 -10 35 10 0 17 22 27 75 35 22 3 87 36 118 60
19 15 39 26 45 26 17 0 159 145 167 170 17 53 -35 50 -75 -4 -61 -83 -176
-134 -390 -173 -128 -23 -265 -7 -364 42 -126 62 -196 127 -241 225 -28 60
-32 65 -46 68 -8 1 -20 -3 -27 -10z"/>
<path d="M9605 3210 c-16 -16 -37 -32 -47 -36 -10 -3 -18 -12 -18 -20 0 -8 -6
-14 -13 -14 -8 0 -22 -9 -32 -20 -10 -11 -22 -20 -26 -20 -11 0 -119 -113
-119 -124 0 -4 -13 -23 -28 -40 -16 -18 -41 -64 -56 -102 -16 -38 -34 -81 -42
-96 -8 -14 -14 -35 -14 -46 0 -12 -4 -24 -10 -27 -5 -3 -10 -24 -10 -45 0 -22
-7 -45 -16 -55 -13 -13 -16 -32 -12 -100 4 -72 8 -88 32 -119 15 -20 36 -36
46 -36 25 0 36 39 22 78 -11 32 -5 221 7 237 22 26 61 106 57 114 -3 5 5 25
19 45 14 20 25 39 25 41 0 10 93 145 134 195 25 30 46 58 46 61 0 3 28 26 62
50 82 59 99 76 92 94 -11 27 -67 19 -99 -15z"/>
<path d="M9656 3074 c-41 -28 -63 -51 -121 -124 -19 -25 -40 -50 -45 -57 -6
-7 -10 -19 -10 -27 0 -8 -4 -17 -9 -20 -5 -3 -12 -18 -15 -32 -4 -15 -14 -33
-21 -41 -8 -8 -15 -25 -15 -38 0 -13 -5 -36 -11 -52 -6 -15 -22 -71 -35 -123
-27 -105 -33 -279 -13 -341 14 -41 57 -89 78 -89 14 0 14 2 1 10 -11 8 -8 9
13 4 26 -6 27 -5 27 39 0 25 -4 47 -10 49 -5 2 -10 19 -11 38 -2 19 -7 41 -12
48 -15 20 -3 203 16 242 10 18 17 40 17 48 0 9 6 23 14 31 7 9 24 45 36 81 13
36 27 67 31 70 5 3 21 28 36 56 16 27 43 70 61 94 70 96 91 134 80 147 -16 20
-39 16 -82 -13z"/>
</g>
</svg>
